/* XPM */
static char * door_xpm[] = {
"32 32 166 2",
"  	c #EDCF90",
". 	c #EBCE90",
"+ 	c #EACD8E",
"@ 	c #E9CA8C",
"# 	c #E6C588",
"$ 	c #E8C788",
"% 	c #F1D090",
"& 	c #F6D592",
"* 	c #EDCE8E",
"= 	c #E2C387",
"- 	c #DEC287",
"; 	c #E2C487",
"> 	c #F1D494",
", 	c #ECCE90",
"' 	c #E7C98C",
") 	c #EBCC8C",
"! 	c #EED598",
"~ 	c #F2D292",
"{ 	c #E8CA8B",
"] 	c #E8CD8F",
"^ 	c #EACB8D",
"/ 	c #E4C78B",
"( 	c #E6C789",
"_ 	c #EACC8D",
": 	c #EFD194",
"< 	c #EBCD8F",
"[ 	c #EDCC8C",
"} 	c #EBCD8D",
"| 	c #EFD394",
"1 	c #E4C183",
"2 	c #EDCE8F",
"3 	c #F2D190",
"4 	c #EFD090",
"5 	c #E6CA8C",
"6 	c #E9C98A",
"7 	c #E5CB8D",
"8 	c #E4C687",
"9 	c #F1D392",
"0 	c #F5D593",
"a 	c #F6D593",
"b 	c #F3D290",
"c 	c #E7C98B",
"d 	c #E6C78A",
"e 	c #523B40",
"f 	c #E5C98B",
"g 	c #E4C88B",
"h 	c #E5C98D",
"i 	c #56587B",
"j 	c #EDCF8F",
"k 	c #EFD191",
"l 	c #F2D291",
"m 	c #ECD191",
"n 	c #DCBF84",
"o 	c #DABE83",
"p 	c #DEC387",
"q 	c #E5C98C",
"r 	c #F2D899",
"s 	c #F2D495",
"t 	c #EFD091",
"u 	c #F1CF8F",
"v 	c #EFD18F",
"w 	c #EACC8E",
"x 	c #E8CC8E",
"y 	c #E8C889",
"z 	c #E8C98A",
"A 	c #EAC98A",
"B 	c #F1D595",
"C 	c #EED495",
"D 	c #E1C487",
"E 	c #A7ACBA",
"F 	c #E8CA8C",
"G 	c #DFC488",
"H 	c #E0C186",
"I 	c #EFD192",
"J 	c #E0C589",
"K 	c #E9CB8D",
"L 	c #EBCA8C",
"M 	c #EBCC8E",
"N 	c #E2C286",
"O 	c #E9CA8A",
"P 	c #EACA8B",
"Q 	c #F0CF8D",
"R 	c #895A45",
"S 	c #F4D594",
"T 	c #F2D595",
"U 	c #F2D694",
"V 	c #F3D493",
"W 	c #F0D191",
"X 	c #F3D492",
"Y 	c #EED193",
"Z 	c #3D253B",
"` 	c #EDCE8D",
" .	c #E5C88B",
"..	c #F1DC9C",
"+.	c #EFCF8F",
"@.	c #EBCD8E",
"#.	c #EED497",
"$.	c #EBCC8D",
"%.	c #BF704D",
"&.	c #EECF90",
"*.	c #E6CB8E",
"=.	c #EBD191",
"-.	c #EED090",
";.	c #EED293",
">.	c #EECF8F",
",.	c #DFC185",
"'.	c #802954",
").	c #E9CE8F",
"!.	c #ECCE8F",
"~.	c #ECCD8E",
"{.	c #ECCD8F",
"].	c #E5C586",
"^.	c #E8CB8E",
"/.	c #D8C186",
"(.	c #E8C98B",
"_.	c #ECCC8B",
":.	c #EACF90",
"<.	c #E6C788",
"[.	c #EED091",
"}.	c #EACB8B",
"|.	c #EBCE8E",
"1.	c #EBCF90",
"2.	c #E6C88B",
"3.	c #E8C989",
"4.	c #ECCC8C",
"5.	c #E2C88B",
"6.	c #E9CC8E",
"7.	c #EFCE8E",
"8.	c #EAC98B",
"9.	c #EACD8F",
"0.	c #DFC085",
"a.	c #EACA8C",
"b.	c #DEC085",
"c.	c #E1C589",
"d.	c #EDCD8D",
"e.	c #E3C68A",
"f.	c #E5C889",
"g.	c #EED190",
"h.	c #F0D292",
"i.	c #E5CA8C",
"j.	c #E7C88B",
"k.	c #E4C689",
"l.	c #E7CA8C",
"m.	c #DFC285",
"n.	c #DCBD82",
"o.	c #E9CD8F",
"p.	c #EDD091",
"q.	c #E7CB8D",
"r.	c #E4C386",
"s.	c #E7C687",
"t.	c #EFD08F",
"u.	c #EACB8C",
"v.	c #E4C589",
"w.	c #ECCD90",
"x.	c #E6CA8D",
"y.	c #E7CC8E",
"z.	c #ECCC8D",
"A.	c #E6C78B",
"B.	c #ECCF90",
"C.	c #E8C88A",
"D.	c #EBCE8F",
"E.	c #E8C787",
"F.	c #EFD493",
"G.	c #EED595",
"H.	c #EECE8F",
"I.	c #EFCA88",
"  . + @ # $ % & * = - ; > , ' ) ! ~ { ] ^ / ( _ : < [ } | ^ 1 2 ",
"3 4 5 6 7 8 9 0 a b c d e e * f g h e i i i e j e e i i i i i k ",
"l m n o p q r s t u e i i e e e e e i i i e e e e i i i i i e v ",
"w x y z A ' B C D e i i i e e E E E E E E E E E E E E E E E i F ",
"G H E i i i e I J e i i e E E E E E E E E E E E E E E E E E i K ",
"w E E E i i i e e e e e E E E E E E E E E E i i i i i i i e i   ",
"L E E E E i e e e e e E E E E E E E E E E E E E E i e e e i e M ",
"N E E E E E i e e e e E E E E E E E E E E E E E E i i e e e e c ",
"6 E E E E E E i i e e E E E E E E i i i i i i i e i e e e e e O ",
"P E E E E E E E i i e i i i i i i e e i i e e e e e e e e e e Q ",
"9 E E E E E E E E R R R R R R R R R R R R R R R R R R R e e e S ",
"T E E E E E E E E R R R R R R R R R R R R R R R R R R R e e e U ",
"V E E E E E E E E R R R R R R R R R R R R R R R R R R R e e e W ",
"X Y E E E E E E E E R R e R R R e Z Z Z Z R R e R R R e e e i ` ",
" .q E E E E E E E E R R R R R Z e Z Z Z Z Z R R R R R e e i i p ",
"..+.i E E E E E E E R R R R e Z e Z Z Z Z Z Z R R R R e e i E @.",
"#.l { i E E E E E E R R R e e Z e Z Z Z Z Z Z Z R R R e e E i $.",
" .h + i E E E E E E R R %.%.e Z e Z Z Z Z Z Z Z R R R e e i i f ",
"&.*.=.2 i E E E E E %.%.%.%.e Z e Z Z Z Z Z Z Z R R R e e i i v ",
"-.;.>._ ,.E E E %.%.%.'.%.%.e Z e Z Z Z Z Z Z Z R R R e e i E ).",
"J !.~.{.].^. .%.%.'.%.'.'.%.e Z e Z Z Z Z Z Z Z R R R e e i i /.",
"(._.:.+ <.[.E E %.'.'.'.'.%.e Z e Z Z Z Z Z Z Z R R R e e i i = ",
"}.|.1.2.E E E E %.%.'.%.%.%.e Z e Z Z Z Z Z Z Z R R R e e i E 3.",
"4.5.6.E E E E E %.%.%.%.R e e Z e Z Z Z Z Z Z Z R R R e i E E 7.",
"8.*.9.E E E E E %.%.R R R e e Z e Z Z Z Z Z Z Z R R R e i E E $.",
"0.a.E E E E E E E i R R R e e Z e Z Z Z Z Z Z Z R R R e i E i b.",
"c.d.E E E E i i i i R R R e e Z e Z Z Z Z Z Z Z R R R e i i E e.",
"!.f.i i i i i i i i R R R e e Z e Z Z Z Z Z Z Z R R R e i i i g.",
"h.i.i i i i i i e e R R R e e Z e Z Z Z Z Z Z Z R R R e e e i j.",
"k.l.i i i i i e e e R R R e e Z i i Z Z Z Z Z Z R R R e e e i m.",
"n.@ o.i e e e e e e R R R e e i i i Z Z Z Z Z Z R R R e e e i _ ",
". p.q.c r.s.a.t.u.v.w.6.x.y.f z...+.{ g A.B.C.f | D.E.F.G.H.I.~ "};
