/* XPM */
static char * Dragon_xpm[] = {
"32 32 12 1",
" 	c None",
".	c #211317",
"+	c #EDB35E",
"@	c #F9E99C",
"#	c #DD9C5A",
"$	c #CD7A3D",
"%	c #CE8946",
"&	c #FCD881",
"*	c #EEE9DA",
"=	c #C8BBC8",
"-	c #37282C",
";	c #F8001F",
"                                ",
"                                ",
"               ..               ",
"              .++.              ",
"              .@@.              ",
"             .+@@+.             ",
"              .#$.              ",
"              .++.              ",
"              .#$.              ",
"              .++.              ",
"          ..  .#$.  ..          ",
"          .%..++++..%.          ",
"          .&.+@@@@+.&.          ",
"          .&#@@@@@@#&.          ",
"          .$#@@@@@@#$.          ",
"     ...  ..$&@@@@&$..  ...     ",
"    .@@@..*.$+&&&&+$.*..@@@.    ",
"     .%$+.**.$$$$$$.**.+$%.     ",
"      .%$.=**.+@@+.**=.$%.      ",
"       .%$.=*+@&&@+*=.$%.       ",
"        ....=+@@@@+=....        ",
"         .**%-#++#-%**.         ",
"         ..=%;-&&-;%=..         ",
"         .%.%%+@@+%%.%.         ",
"         .%..+-++-+..%.         ",
"         .$..++&&++..$.         ",
"          .  .$++$.  .          ",
"              ....              ",
"                                ",
"                                ",
"                                ",
"                                "};
