/* XPM */
static char * dragon_xpm[] = {
"32 32 348 2",
"  	c #EDCF90",
". 	c #EBCE90",
"+ 	c #EACD8E",
"@ 	c #E9CA8C",
"# 	c #E6C588",
"$ 	c #E8C788",
"% 	c #F1D090",
"& 	c #F6D592",
"* 	c #EDCE8E",
"= 	c #E2C387",
"- 	c #DEC287",
"; 	c #E2C487",
"> 	c #F1D494",
", 	c #ECCE90",
"' 	c #E7C98C",
") 	c #EBCC8C",
"! 	c #EED598",
"~ 	c #F2D292",
"{ 	c #E8CA8B",
"] 	c #E8CD8F",
"^ 	c #EACB8D",
"/ 	c #E4C78B",
"( 	c #E6C789",
"_ 	c #EACC8D",
": 	c #EFD194",
"< 	c #EBCD8F",
"[ 	c #EDCC8C",
"} 	c #EBCD8D",
"| 	c #EFD394",
"1 	c #E4C183",
"2 	c #EDCE8F",
"3 	c #F2D190",
"4 	c #EFD090",
"5 	c #E6CA8C",
"6 	c #E9C98A",
"7 	c #E5CB8D",
"8 	c #E4C687",
"9 	c #F1D392",
"0 	c #F5D593",
"a 	c #F6D593",
"b 	c #F3D290",
"c 	c #E7C98B",
"d 	c #E6C78A",
"e 	c #EBCB8C",
"f 	c #E5C98B",
"g 	c #E4C88B",
"h 	c #E5C98D",
"i 	c #ECCE8F",
"j 	c #E5C689",
"k 	c #E7C88B",
"l 	c #EDCF8F",
"m 	c #F0CF8F",
"n 	c #EDD393",
"o 	c #E4C688",
"p 	c #E8C989",
"q 	c #EFD191",
"r 	c #F2D291",
"s 	c #ECD191",
"t 	c #DCBF84",
"u 	c #DABE83",
"v 	c #DEC387",
"w 	c #E5C98C",
"x 	c #F2D899",
"y 	c #F2D495",
"z 	c #EFD091",
"A 	c #F1CF8F",
"B 	c #F0D190",
"C 	c #F0D090",
"D 	c #E6C688",
"E 	c #E8CA8C",
"F 	c #211317",
"G 	c #E6CB8E",
"H 	c #EBD191",
"I 	c #EACC8F",
"J 	c #EAC98B",
"K 	c #E5C68A",
"L 	c #EACB8C",
"M 	c #F1D493",
"N 	c #EECE8E",
"O 	c #E0C589",
"P 	c #DEC184",
"Q 	c #E4C486",
"R 	c #EDCD8C",
"S 	c #EFD18F",
"T 	c #EACC8E",
"U 	c #E8CC8E",
"V 	c #E8C889",
"W 	c #E8C98A",
"X 	c #EAC98A",
"Y 	c #F1D595",
"Z 	c #EED495",
"` 	c #E1C487",
" .	c #DDC085",
"..	c #D8BC81",
"+.	c #DCBE82",
"@.	c #E3C387",
"#.	c #EDB35E",
"$.	c #EECF8F",
"%.	c #DFC185",
"&.	c #E0C387",
"*.	c #E1C387",
"=.	c #DABD82",
"-.	c #DFC184",
";.	c #ECD292",
">.	c #F0CF8E",
",.	c #EBD193",
"'.	c #EECE8D",
").	c #EDCB8B",
"!.	c #E6C486",
"~.	c #DFC488",
"{.	c #E0C186",
"].	c #EFD192",
"^.	c #DAC086",
"/.	c #E0C084",
"(.	c #DFBF82",
"_.	c #E1C589",
":.	c #ECCC8C",
"<.	c #F9E99C",
"[.	c #ECCD8E",
"}.	c #ECCD8F",
"|.	c #E5C586",
"1.	c #E8CB8E",
"2.	c #E5C88B",
"3.	c #D6BA81",
"4.	c #DBBC80",
"5.	c #E9CD8E",
"6.	c #ECCD8C",
"7.	c #ECD697",
"8.	c #EFCD8B",
"9.	c #EFD08F",
"0.	c #E9CB8D",
"a.	c #E7C889",
"b.	c #EACE8F",
"c.	c #F0CF90",
"d.	c #F3D494",
"e.	c #E4C98D",
"f.	c #EECD8D",
"g.	c #E6C788",
"h.	c #EED091",
"i.	c #E4C587",
"j.	c #DDBE82",
"k.	c #EACE90",
"l.	c #E3C98D",
"m.	c #E7CB8E",
"n.	c #EBCA8C",
"o.	c #E6C88A",
"p.	c #EED090",
"q.	c #F0D291",
"r.	c #E8CB8D",
"s.	c #EACD8F",
"t.	c #F0D393",
"u.	c #E5C88C",
"v.	c #E2C386",
"w.	c #E5C688",
"x.	c #E3C589",
"y.	c #DD9C5A",
"z.	c #CD7A3D",
"A.	c #EBCF90",
"B.	c #E6C88B",
"C.	c #E1C284",
"D.	c #E4C485",
"E.	c #E9CB8C",
"F.	c #EAC787",
"G.	c #ECCD8D",
"H.	c #EBCC8D",
"I.	c #EECF90",
"J.	c #E5C587",
"K.	c #EBCA8A",
"L.	c #EACA8B",
"M.	c #EBCC8E",
"N.	c #E2C286",
"O.	c #E6CC8E",
"P.	c #E4C789",
"Q.	c #DFC387",
"R.	c #E7C88A",
"S.	c #E1C084",
"T.	c #E3C689",
"U.	c #E1C488",
"V.	c #E4C689",
"W.	c #DCBD81",
"X.	c #E9CC8E",
"Y.	c #E8C98B",
"Z.	c #E4C384",
"`.	c #EBC888",
" +	c #E3C386",
".+	c #E7C789",
"++	c #ECCC8D",
"@+	c #EAC687",
"#+	c #F0CC8C",
"$+	c #F0D08F",
"%+	c #F0CC8A",
"&+	c #EFCB8B",
"*+	c #EACA8C",
"=+	c #E9C88A",
"-+	c #E9CA8B",
";+	c #E8CD90",
">+	c #EECB8A",
",+	c #E1C183",
"'+	c #EED08F",
")+	c #E3C285",
"!+	c #E2C689",
"~+	c #EBCD8E",
"{+	c #ECCA8A",
"]+	c #E8CC8D",
"^+	c #E9CA8A",
"/+	c #F1D190",
"(+	c #EBCB8D",
"_+	c #E8C888",
":+	c #E8CB8C",
"<+	c #ECC989",
"[+	c #EFD392",
"}+	c #E6C98B",
"|+	c #E6C98C",
"1+	c #DBC085",
"2+	c #DEC084",
"3+	c #EDCD8E",
"4+	c #F0CF8D",
"5+	c #F2D18F",
"6+	c #EED191",
"7+	c #E1C285",
"8+	c #DDC588",
"9+	c #F2CF8E",
"0+	c #E9C989",
"a+	c #DFC388",
"b+	c #F4D391",
"c+	c #EFCD8E",
"d+	c #F4D493",
"e+	c #E7CA8C",
"f+	c #EFD292",
"g+	c #E3C486",
"h+	c #DCBE83",
"i+	c #E5C78B",
"j+	c #F0CE8D",
"k+	c #F4D594",
"l+	c #F2D595",
"m+	c #E6CB8D",
"n+	c #E2C68A",
"o+	c #E5C487",
"p+	c #E7CB8D",
"q+	c #CE8946",
"r+	c #E1C68A",
"s+	c #E2C78A",
"t+	c #E9C888",
"u+	c #F2D694",
"v+	c #F3D493",
"w+	c #EACD8D",
"x+	c #ECCE8D",
"y+	c #DABC81",
"z+	c #DFC48A",
"A+	c #FCD881",
"B+	c #DFCA8D",
"C+	c #DBC48A",
"D+	c #E1C386",
"E+	c #EFCD8D",
"F+	c #E9C88B",
"G+	c #E6C689",
"H+	c #F0D191",
"I+	c #F3D492",
"J+	c #EED193",
"K+	c #F0D494",
"L+	c #E4C589",
"M+	c #D1BA81",
"N+	c #EFCF8F",
"O+	c #ECCF8F",
"P+	c #F2D998",
"Q+	c #E5C789",
"R+	c #EDCE8D",
"S+	c #D7BB82",
"T+	c #DCBF83",
"U+	c #E3C588",
"V+	c #F5D693",
"W+	c #F3D393",
"X+	c #F2D391",
"Y+	c #F1DC9C",
"Z+	c #E3C88B",
"`+	c #EFD393",
" @	c #EFD08E",
".@	c #E9CD8D",
"+@	c #E6C98D",
"@@	c #EED497",
"#@	c #E8CC8F",
"$@	c #EEE9DA",
"%@	c #F1D394",
"&@	c #C8BBC8",
"*@	c #EED293",
"=@	c #E9CE8F",
"-@	c #EAC889",
";@	c #D8C186",
">@	c #ECCC8B",
",@	c #EACF90",
"'@	c #37282C",
")@	c #EACB8B",
"!@	c #EBCE8E",
"~@	c #F8001F",
"{@	c #F2D290",
"]@	c #E2C88B",
"^@	c #E5C88A",
"/@	c #EFCE8E",
"(@	c #DFC085",
"_@	c #E0C286",
":@	c #DEC085",
"<@	c #EDCD8D",
"[@	c #EBCD90",
"}@	c #EFCF91",
"|@	c #F6D897",
"1@	c #F2D697",
"2@	c #E2C68B",
"3@	c #E3C68A",
"4@	c #E5C889",
"5@	c #E9C788",
"6@	c #E2C589",
"7@	c #E8D094",
"8@	c #EDCC8B",
"9@	c #EED190",
"0@	c #F0D292",
"a@	c #E5CA8C",
"b@	c #DABB81",
"c@	c #DDBE84",
"d@	c #DFC68C",
"e@	c #DBBD82",
"f@	c #E0BF82",
"g@	c #E3C688",
"h@	c #ECCE8E",
"i@	c #F2D492",
"j@	c #E1C385",
"k@	c #E0C285",
"l@	c #DFC285",
"m@	c #DCBD82",
"n@	c #E9CD8F",
"o@	c #DEC489",
"p@	c #E4C88C",
"q@	c #ECCF8E",
"r@	c #F1CF8D",
"s@	c #EDD091",
"t@	c #E4C386",
"u@	c #E7C687",
"v@	c #ECCD90",
"w@	c #E6CA8D",
"x@	c #E7CC8E",
"y@	c #E6C78B",
"z@	c #ECCF90",
"A@	c #E8C88A",
"B@	c #EBCE8F",
"C@	c #E8C787",
"D@	c #EFD493",
"E@	c #EED595",
"F@	c #EECE8F",
"G@	c #EFCA88",
"  . + @ # $ % & * = - ; > , ' ) ! ~ { ] ^ / ( _ : < [ } | ^ 1 2 ",
"3 4 5 6 7 8 9 0 a b c d e , * f g h + i i j k l ~ m n } ) o p q ",
"r s t u v w x y z A B C D E C F F G H 2 I J ' K L M N O P Q R S ",
"T U V W X ' Y Z `  ...+.@.d F #.#.F $._ %.&.*.=.-.;.>.,.'.).!.E ",
"~.{.X X + ^ z ].O ^./.(._.:.F <.<.F [.}.|.1.2.3.4.5.6.7.8.9.E 0.",
"T a._ 9.b.0.c.d.e./ A f.k F #.<.<.#.F + g.h.$.i.j.j k.l.V T m.  ",
"n.e o.p.q.r.s.t.u.v.b.w.x._ F y.z.F A.B.C.D.E.F.G.H.I.@ J.K.L.M.",
"N.O.P.Q.G.:._ R.S.P.T.U.V.W.F #.#.F X.Y.Z.`.Y. +%..+++O.@+#+$+c ",
"6 . X.( %+&+*+=+W e -+;+>+,+F y.z.F s.}.V 6 5.'+)+!+^ ~+C {+]+^+",
"L./+h.(+_+Q :+<+W { [+}+v.X F #.#.F G.E 5 T 1.|+~+E.1+2+3+~+9.4+",
"9 5+6+E 7+8+P.++9+C F F 0+a+F y.z.F b+c+F F d+e+k.f+g+h+i+T j+k+",
"l+p.@ ~+_+m+n+U.o+p+F q+F F #.#.#.#.F F q+F m+r+s+p+[ t+1.i.0+u+",
"v+Y H.w+R.x+* w.y+z+F A+F #.<.<.<.<.#.F A+F B+C+D+:+* E+F+G+R.H+",
"I+J+K+L+M+h+i N+N O+F A+y.<.<.<.<.<.<.y.A+F P+> 2.Q -+Q+@.E.^ R+",
"2.w < B.S+T+U+O+V+$+F z.y.<.<.<.<.<.<.y.z.F W+X+L %.R.V.v.X.T.v ",
"Y+N+{ Z+B.F F F `+< F F z.A+<.<.<.<.A+z.F F @  @F F F .@+@G f ~+",
"@@r { #@F <.<.<.F F $@F z.#.A+A+A+A+#.z.F $@F F <.<.<.F %@, ' H.",
"2.h + i i F q+z.#.F $@$@F z.z.z.z.z.z.F $@$@F #.z.q+F d e , * f ",
"I.G H 2 I J F q+z.F &@$@$@F #.<.<.#.F $@$@&@F z.q+F B C D E C S ",
"p.*@$._ %.&.*.F q+z.F &@$@#.<.A+A+<.#.$@&@F z.q+F  ...+.@.d L =@",
"O i [.}.|.1.2.3.F F F F &@#.<.<.<.<.#.&@F F F F O ^./.(._.:.-@;@",
"Y.>@,@+ g.h.$.i.j.F $@$@q+'@y.#.#.y.'@q+$@$@F d.e./ A f.k 0.6 = ",
")@!@A.B.C.D.E.F.G.F F &@q+~@'@A+A+'@~@q+&@F F t.u.v.b.w.x._ {@p ",
":.]@X.Y.Z.`.Y. +%.F q+F q+q+#.<.<.#.q+q+F q+F R.S.P.T.U.V.W.^@/@",
"J G s.}.V 6 5.'+)+F q+F F #.'@#.#.'@#.F F q+F =+W e -+;+>+,+=.H.",
"(@*+G.E 5 T 1.|+~+F z.F F #.#.A+A+#.#.F F z.F <+W { [+}+v.X _@:@",
"_.<@b+c+[@}@d+e+k.f+F h+i+F z.#.#.z.F E 7+F P.++9+C |@1@0+a+2@3@",
"i 4@L.5@6@j m+r+s+p+[ t+1.i.F F F F @ ~+_+m+n+U.o+p+o+7@8@2.L 9@",
"0@a@:@t b@a+B+C+D+:+* E+F+G+R.q v+Y H.w+R.x+* w.y+z+c@d@e@i.f@k ",
"V.e+*.g@^@+ P+> 2.Q -+Q+@.E.^ h@i@J+K+L+M+h+i N+N O+/@p.; j@k@l@",
"m@@ n@D o@X W+X+L %.R.V.v.X.T.v p@w < B.S+T+U+O+V+$+q@<@j w.r@_ ",
". s@p+c t@u@*+9.L L+v@X.w@x@f ++Y+N+{ g y@z@A@f | B@C@D@E@F@G@~ "};
