/* XPM */
static char * sand_xpm[] = {
"32 32 352 2",
"  	c #EDCF90",
". 	c #EBCE90",
"+ 	c #EACD8E",
"@ 	c #E9CA8C",
"# 	c #E6C588",
"$ 	c #E8C788",
"% 	c #F1D090",
"& 	c #F6D592",
"* 	c #EDCE8E",
"= 	c #E2C387",
"- 	c #DEC287",
"; 	c #E2C487",
"> 	c #F1D494",
", 	c #ECCE90",
"' 	c #E7C98C",
") 	c #EBCC8C",
"! 	c #EED598",
"~ 	c #F2D292",
"{ 	c #E8CA8B",
"] 	c #E8CD8F",
"^ 	c #EACB8D",
"/ 	c #E4C78B",
"( 	c #E6C789",
"_ 	c #EACC8D",
": 	c #EFD194",
"< 	c #EBCD8F",
"[ 	c #EDCC8C",
"} 	c #EBCD8D",
"| 	c #EFD394",
"1 	c #E4C183",
"2 	c #EDCE8F",
"3 	c #F2D190",
"4 	c #EFD090",
"5 	c #E6CA8C",
"6 	c #E9C98A",
"7 	c #E5CB8D",
"8 	c #E4C687",
"9 	c #F1D392",
"0 	c #F5D593",
"a 	c #F6D593",
"b 	c #F3D290",
"c 	c #E7C98B",
"d 	c #E6C78A",
"e 	c #EBCB8C",
"f 	c #E5C98B",
"g 	c #E4C88B",
"h 	c #E5C98D",
"i 	c #ECCE8F",
"j 	c #E5C689",
"k 	c #E7C88B",
"l 	c #EDCF8F",
"m 	c #F0CF8F",
"n 	c #EDD393",
"o 	c #E4C688",
"p 	c #E8C989",
"q 	c #EFD191",
"r 	c #F2D291",
"s 	c #ECD191",
"t 	c #DCBF84",
"u 	c #DABE83",
"v 	c #DEC387",
"w 	c #E5C98C",
"x 	c #F2D899",
"y 	c #F2D495",
"z 	c #EFD091",
"A 	c #F1CF8F",
"B 	c #F0D190",
"C 	c #F0D090",
"D 	c #E6C688",
"E 	c #E8CA8C",
"F 	c #EFD18F",
"G 	c #EECF90",
"H 	c #E6CB8E",
"I 	c #EBD191",
"J 	c #EACC8F",
"K 	c #EAC98B",
"L 	c #E5C68A",
"M 	c #EACB8C",
"N 	c #F1D493",
"O 	c #EECE8E",
"P 	c #E0C589",
"Q 	c #DEC184",
"R 	c #E4C486",
"S 	c #EDCD8C",
"T 	c #EACC8E",
"U 	c #E8CC8E",
"V 	c #E8C889",
"W 	c #E8C98A",
"X 	c #EAC98A",
"Y 	c #F1D595",
"Z 	c #EED495",
"` 	c #E1C487",
" .	c #DDC085",
"..	c #D8BC81",
"+.	c #DCBE82",
"@.	c #E3C387",
"#.	c #E8CE8F",
"$.	c #EDD090",
"%.	c #EED293",
"&.	c #EECF8F",
"*.	c #DFC185",
"=.	c #E0C387",
"-.	c #E1C387",
";.	c #DABD82",
">.	c #DFC184",
",.	c #ECD292",
"'.	c #F0CF8E",
").	c #EBD193",
"!.	c #EECE8D",
"~.	c #EDCB8B",
"{.	c #E6C486",
"].	c #DFC488",
"^.	c #E0C186",
"/.	c #EFD192",
"(.	c #DAC086",
"_.	c #E0C084",
":.	c #DFBF82",
"<.	c #E1C589",
"[.	c #ECCC8C",
"}.	c #EAC889",
"|.	c #D8C186",
"1.	c #ECCD8E",
"2.	c #ECCD8F",
"3.	c #E5C586",
"4.	c #E8CB8E",
"5.	c #E5C88B",
"6.	c #D6BA81",
"7.	c #DBBC80",
"8.	c #E9CD8E",
"9.	c #ECCD8C",
"0.	c #ECD697",
"a.	c #EFCD8B",
"b.	c #EFD08F",
"c.	c #E9CB8D",
"d.	c #E7C889",
"e.	c #EACE8F",
"f.	c #F0CF90",
"g.	c #F3D494",
"h.	c #E4C98D",
"i.	c #EECD8D",
"j.	c #ECCC8B",
"k.	c #EACF90",
"l.	c #E6C788",
"m.	c #EED091",
"n.	c #E4C587",
"o.	c #DDBE82",
"p.	c #EACE90",
"q.	c #E3C98D",
"r.	c #E7CB8E",
"s.	c #EBCA8C",
"t.	c #E6C88A",
"u.	c #EED090",
"v.	c #F0D291",
"w.	c #E8CB8D",
"x.	c #EACD8F",
"y.	c #F0D393",
"z.	c #E5C88C",
"A.	c #E2C386",
"B.	c #E5C688",
"C.	c #E3C589",
"D.	c #F2D290",
"E.	c #E9CB8B",
"F.	c #EBCE8E",
"G.	c #EBCF90",
"H.	c #E6C88B",
"I.	c #E1C284",
"J.	c #E4C485",
"K.	c #E9CB8C",
"L.	c #EAC787",
"M.	c #ECCD8D",
"N.	c #EBCC8D",
"O.	c #E5C587",
"P.	c #EBCA8A",
"Q.	c #EACA8B",
"R.	c #EBCC8E",
"S.	c #E2C286",
"T.	c #E6CC8E",
"U.	c #E4C789",
"V.	c #DFC387",
"W.	c #E7C88A",
"X.	c #E1C084",
"Y.	c #E3C689",
"Z.	c #E1C488",
"`.	c #E4C689",
" +	c #DCBD81",
".+	c #E5C88A",
"++	c #EFCE8E",
"@+	c #E2C88B",
"#+	c #E9CC8E",
"$+	c #E8C98B",
"%+	c #E4C384",
"&+	c #EBC888",
"*+	c #E3C386",
"=+	c #E7C789",
"-+	c #ECCC8D",
";+	c #EAC687",
">+	c #F0CC8C",
",+	c #F0D08F",
"'+	c #F0CC8A",
")+	c #EFCB8B",
"!+	c #EACA8C",
"~+	c #E9C88A",
"{+	c #E9CA8B",
"]+	c #E8CD90",
"^+	c #EECB8A",
"/+	c #E1C183",
"(+	c #EED08F",
"_+	c #E3C285",
":+	c #E2C689",
"<+	c #EBCD8E",
"[+	c #ECCA8A",
"}+	c #E8CC8D",
"|+	c #E9CA8A",
"1+	c #F1D190",
"2+	c #EBCB8D",
"3+	c #E8C888",
"4+	c #E8CB8C",
"5+	c #ECC989",
"6+	c #EFD392",
"7+	c #E6C98B",
"8+	c #E0C286",
"9+	c #DEC085",
"0+	c #DFC085",
"a+	c #E6C98C",
"b+	c #DBC085",
"c+	c #DEC084",
"d+	c #EDCD8E",
"e+	c #F0CF8D",
"f+	c #F2D18F",
"g+	c #EED191",
"h+	c #E1C285",
"i+	c #DDC588",
"j+	c #F2CF8E",
"k+	c #F6D897",
"l+	c #F2D697",
"m+	c #E9C989",
"n+	c #DFC388",
"o+	c #E2C68B",
"p+	c #E3C68A",
"q+	c #EDCD8D",
"r+	c #F4D391",
"s+	c #EFCD8E",
"t+	c #EBCD90",
"u+	c #EFCF91",
"v+	c #F4D493",
"w+	c #E7CA8C",
"x+	c #EFD292",
"y+	c #E3C486",
"z+	c #DCBE83",
"A+	c #E5C78B",
"B+	c #F0CE8D",
"C+	c #F4D594",
"D+	c #F2D595",
"E+	c #E6CB8D",
"F+	c #E2C68A",
"G+	c #E5C487",
"H+	c #E7CB8D",
"I+	c #E8D094",
"J+	c #EDCC8B",
"K+	c #EED190",
"L+	c #E5C889",
"M+	c #E9C788",
"N+	c #E2C589",
"O+	c #E1C68A",
"P+	c #E2C78A",
"Q+	c #E9C888",
"R+	c #F2D694",
"S+	c #F3D493",
"T+	c #EACD8D",
"U+	c #ECCE8D",
"V+	c #DABC81",
"W+	c #DFC48A",
"X+	c #DDBE84",
"Y+	c #DFC68C",
"Z+	c #DBBD82",
"`+	c #E0BF82",
" @	c #F1D292",
".@	c #E5CA8C",
"+@	c #DABB81",
"@@	c #DFCA8D",
"#@	c #DBC48A",
"$@	c #E1C386",
"%@	c #EFCD8D",
"&@	c #E9C88B",
"*@	c #E6C689",
"=@	c #F0D191",
"-@	c #F3D492",
";@	c #EED193",
">@	c #F0D494",
",@	c #E4C589",
"'@	c #D1BA81",
")@	c #EFCF8F",
"!@	c #ECCF8F",
"~@	c #E1C385",
"{@	c #E0C285",
"]@	c #DFC186",
"^@	c #E3C688",
"/@	c #F2D998",
"(@	c #E5C789",
"_@	c #EDCE8D",
":@	c #D7BB82",
"<@	c #DCBF83",
"[@	c #E3C588",
"}@	c #F5D693",
"|@	c #ECCF8E",
"1@	c #F1CF8D",
"2@	c #DBBC82",
"3@	c #E9CD8F",
"4@	c #DEC489",
"5@	c #F3D393",
"6@	c #F2D391",
"7@	c #F1DC9C",
"8@	c #E3C88B",
"9@	c #ECCF91",
"0@	c #E7C98A",
"a@	c #EFD393",
"b@	c #E8C787",
"c@	c #EFD493",
"d@	c #EECE8F",
"e@	c #F0CA88",
"f@	c #EDD192",
"g@	c #E4C386",
"h@	c #E7C687",
"i@	c #EFD08E",
"j@	c #E9CD8D",
"k@	c #E6C98D",
"l@	c #EED497",
"m@	c #E8CC8F",
"n@	c #EFD293",
"o@	c #E4C182",
"p@	c #ECCF90",
"q@	c #F5D592",
"r@	c #DEC186",
"s@	c #F1D394",
"t@	c #E9CE8F",
"u@	c #EACB8B",
"v@	c #E1C286",
"w@	c #F0D292",
"x@	c #ECCE8E",
"y@	c #F2D492",
"z@	c #DFC285",
"A@	c #DCBD82",
"B@	c #E4C88C",
"C@	c #EDD091",
"D@	c #ECCD90",
"E@	c #E6CA8D",
"F@	c #E7CC8E",
"G@	c #E6C78B",
"H@	c #E8C88A",
"I@	c #EBCE8F",
"J@	c #EED595",
"K@	c #EFCA88",
"  . + @ # $ % & * = - ; > , ' ) ! ~ { ] ^ / ( _ : < [ } | ^ 1 2 ",
"3 4 5 6 7 8 9 0 a b c d e , * f g h + i i j k l ~ m n } ) o p q ",
"r s t u v w x y z A B C D E C F G H I 2 J K ' L M N O P Q R S F ",
"T U V W X ' Y Z `  ...+.@.d M #.$.%.&._ *.=.-.;.>.,.'.).!.~.{.E ",
"].^.X X + ^ z /.P (._.:.<.[.}.|.<.i 1.2.3.4.5.6.7.8.9.0.a.b.E c.",
"T d._ b.e.c.f.g.h./ A i.k c.6 = E j.k.+ l.m.&.n.o.j p.q.V T r.  ",
"s.e t.u.v.w.x.y.z.A.e.B.C._ D.p E.F.G.H.I.J.K.L.M.N.G @ O.P.Q.R.",
"S.T.U.V.M.[._ W.X.U.Y.Z.`. +.+++[.@+#+$+%+&+$+*+*.=+-+T.;+>+,+c ",
"6 . #+( '+)+!+~+W e {+]+^+/+;.R.X H x.2.V 6 8.(+_+:+^ <+C [+}+|+",
"Q.1+m.2+3+R 4+5+W { 6+7+A.X 8+9+0+!+M.E 5 T 4.a+<+K.b+c+d+<+b.e+",
"9 f+g+E h+i+U.-+j+C k+l+m+n+o+p+<.q+r+s+t+u+v+w+p.x+y+z+A+T B+C+",
"D+u.@ <+3+E+F+Z.G+H+G+I+J+5.M K+, L+Q.M+N+j E+O+P+H+[ Q+4.n.m+R+",
"S+Y N.T+W.U+* B.V+W+X+Y+Z+n.`+t. @.@9+t +@n+@@#@$@4+* %@&@*@W.=@",
"-@;@>@,@'@z+i )@O !@++u.; ~@{@]@`.w+-.^@.++ /@> 5.R {+(@@.K.^ _@",
"5.w < H.:@<@[@!@}@,+|@q+j B.1@N.2@@ 3@D 4@X 5@6@M *.W.`.A.#+Y.v ",
"7@)@{ 8@H.9@0@f a@< b@c@Z d@e@~ . f@H+$+g@h@@ i@M j i j@k@H f <+",
"l@r { m@^ / ( _ : < [ N.n@M o@2 p@p.+ @ # $ % q@* -.r@; s@, ' N.",
"5.h + i i j k l ~ m n } ) o p q 3 4 5 6 7 8 9 0 a b c d e , * f ",
"G H I 2 J K ' L M N O P Q R S b.r s t u v w x y z A B C D E C F ",
"u.%.&._ *.=.-.;.>.,.'.).!.~.{.w+x.U V W X ' Y Z `  ...+.@.d M t@",
"P i 1.2.3.4.5.6.7.8.9.0.a.b.E w.].^.X X + ^ z /.P (._.:.<.[.}.|.",
"$+j.k.+ l.m.&.n.o.j p.q.V T r.  _ d._ b.e.c.f.g.h./ A i.k c.6 = ",
"u@F.G.H.I.J.K.L.M.N.G @ O.P.Q.<+s.e t.u.v.w.x.y.z.A.e.B.C._ D.p ",
"[.@+#+$+%+&+$+*+*.=+-+T.;+>+,+k v@T.U.V.M.[._ W.X.U.Y.Z.`. +.+++",
"K H x.2.V 6 8.(+_+:+^ <+C [+}+|+|+. #+( '+)+!+~+W e {+]+^+/+;.N.",
"0+!+M.E 5 T 4.a+<+K.b+c+d+<+b.'.{+1+m.2+3+R 4+5+W { 6+7+A.X 8+9+",
"<.q+r+s+t+u+v+w+p.x+y+z+A+T B+C+9 f+g+E h+i+U.-+j+C k+l+m+n+o+p+",
"i L+Q.M+N+j E+O+P+H+[ Q+4.n.m+R+D+u.@ <+3+E+F+Z.G+H+G+I+J+5.M K+",
"w@.@9+t +@n+@@#@$@4+* %@&@*@W.q S+Y N.T+W.U+* B.V+W+X+Y+Z+n.`+k ",
"`.w+-.^@.++ /@> 5.R {+(@@.K.^ x@y@;@>@,@'@z+i )@O !@++u.; ~@{@z@",
"A@@ 3@D 4@X 5@6@M *.W.`.A.#+Y.v B@w < H.:@<@[@!@}@,+|@q+j B.1@_ ",
". C@H+c g@h@!+b.M ,@D@#+E@F@f -+7@)@{ g G@p@H@f | I@b@c@J@d@K@~ "};
