/* XPM */
static char * snake_xpm[] = {
"32 32 345 2",
"  	c #EDCF90",
". 	c #EBCE90",
"+ 	c #EACD8E",
"@ 	c #E9CA8C",
"# 	c #E6C588",
"$ 	c #E8C788",
"% 	c #F1D090",
"& 	c #F6D592",
"* 	c #EDCE8E",
"= 	c #E2C387",
"- 	c #DEC287",
"; 	c #E2C487",
"> 	c #F1D494",
", 	c #ECCE90",
"' 	c #E7C98C",
") 	c #EBCC8C",
"! 	c #EED598",
"~ 	c #F2D292",
"{ 	c #000000",
"] 	c #E8CD8F",
"^ 	c #EACB8D",
"/ 	c #E4C78B",
"( 	c #E6C789",
"_ 	c #EACC8D",
": 	c #EFD194",
"< 	c #EBCD8F",
"[ 	c #EDCC8C",
"} 	c #EBCD8D",
"| 	c #EFD394",
"1 	c #E4C183",
"2 	c #EDCE8F",
"3 	c #F2D190",
"4 	c #EFD090",
"5 	c #E6CA8C",
"6 	c #E9C98A",
"7 	c #E5CB8D",
"8 	c #E4C687",
"9 	c #F1D392",
"0 	c #F5D593",
"a 	c #F6D593",
"b 	c #F3D290",
"c 	c #E7C98B",
"d 	c #E6C78A",
"e 	c #EBCB8C",
"f 	c #E5C98B",
"g 	c #E4C88B",
"h 	c #339900",
"i 	c #ECCE8F",
"j 	c #E5C689",
"k 	c #E7C88B",
"l 	c #EDCF8F",
"m 	c #F0CF8F",
"n 	c #EDD393",
"o 	c #E4C688",
"p 	c #E8C989",
"q 	c #EFD191",
"r 	c #F2D291",
"s 	c #ECD191",
"t 	c #DCBF84",
"u 	c #DABE83",
"v 	c #DEC387",
"w 	c #E5C98C",
"x 	c #F2D899",
"y 	c #F2D495",
"z 	c #EFD091",
"A 	c #F1CF8F",
"B 	c #F0D190",
"C 	c #F0D090",
"D 	c #E6C688",
"E 	c #E8CA8C",
"F 	c #EFD18F",
"G 	c #015A01",
"H 	c #EAC98B",
"I 	c #E5C68A",
"J 	c #EACB8C",
"K 	c #F1D493",
"L 	c #EECE8E",
"M 	c #E0C589",
"N 	c #DEC184",
"O 	c #E4C486",
"P 	c #EDCD8C",
"Q 	c #EACC8E",
"R 	c #E8CC8E",
"S 	c #E8C889",
"T 	c #E8C98A",
"U 	c #EAC98A",
"V 	c #F1D595",
"W 	c #EED495",
"X 	c #E1C487",
"Y 	c #DDC085",
"Z 	c #D8BC81",
"` 	c #DCBE82",
" .	c #E3C387",
"..	c #E8CE8F",
"+.	c #E0C387",
"@.	c #E1C387",
"#.	c #DABD82",
"$.	c #DFC184",
"%.	c #ECD292",
"&.	c #F0CF8E",
"*.	c #EBD193",
"=.	c #EECE8D",
"-.	c #EDCB8B",
";.	c #E6C486",
">.	c #DFC488",
",.	c #E0C186",
"'.	c #EFD192",
").	c #DAC086",
"!.	c #E0C084",
"~.	c #DFBF82",
"{.	c #E1C589",
"].	c #ECCC8C",
"^.	c #EAC889",
"/.	c #D8C186",
"(.	c #98FC66",
"_.	c #E5C88B",
":.	c #D6BA81",
"<.	c #DBBC80",
"[.	c #E9CD8E",
"}.	c #ECCD8C",
"|.	c #ECD697",
"1.	c #EFCD8B",
"2.	c #EFD08F",
"3.	c #E9CB8D",
"4.	c #E7C889",
"5.	c #EACE8F",
"6.	c #F0CF90",
"7.	c #F3D494",
"8.	c #E4C98D",
"9.	c #EECD8D",
"0.	c #ECCC8B",
"a.	c #CCFF99",
"b.	c #EECF8F",
"c.	c #E4C587",
"d.	c #DDBE82",
"e.	c #EACE90",
"f.	c #E3C98D",
"g.	c #E7CB8E",
"h.	c #EBCA8C",
"i.	c #E6C88A",
"j.	c #EED090",
"k.	c #F0D291",
"l.	c #E8CB8D",
"m.	c #EACD8F",
"n.	c #F0D393",
"o.	c #E5C88C",
"p.	c #E2C386",
"q.	c #E5C688",
"r.	c #E3C589",
"s.	c #F2D290",
"t.	c #E9CB8B",
"u.	c #EBCE8E",
"v.	c #EAC787",
"w.	c #ECCD8D",
"x.	c #EBCC8D",
"y.	c #EECF90",
"z.	c #E5C587",
"A.	c #EBCA8A",
"B.	c #EACA8B",
"C.	c #EBCC8E",
"D.	c #E2C286",
"E.	c #E6CC8E",
"F.	c #E4C789",
"G.	c #DFC387",
"H.	c #E7C88A",
"I.	c #E1C084",
"J.	c #E3C689",
"K.	c #E1C488",
"L.	c #E4C689",
"M.	c #DCBD81",
"N.	c #E5C88A",
"O.	c #EFCE8E",
"P.	c #E2C88B",
"Q.	c #E3C386",
"R.	c #DFC185",
"S.	c #E7C789",
"T.	c #ECCC8D",
"U.	c #EAC687",
"V.	c #F0CC8C",
"W.	c #F0D08F",
"X.	c #E9CC8E",
"Y.	c #F0CC8A",
"Z.	c #EFCB8B",
"`.	c #EACA8C",
" +	c #E9C88A",
".+	c #E9CA8B",
"++	c #E8CD90",
"@+	c #EECB8A",
"#+	c #E1C183",
"$+	c #EED08F",
"%+	c #E3C285",
"&+	c #E2C689",
"*+	c #EBCD8E",
"=+	c #ECCA8A",
"-+	c #E8CC8D",
";+	c #E9CA8A",
">+	c #F1D190",
",+	c #EED091",
"'+	c #EBCB8D",
")+	c #E8C888",
"!+	c #E8CB8C",
"~+	c #ECC989",
"{+	c #E8CA8B",
"]+	c #EFD392",
"^+	c #E6C98B",
"/+	c #E0C286",
"(+	c #DEC085",
"_+	c #DFC085",
":+	c #E8CB8E",
"<+	c #E6C98C",
"[+	c #E9CB8C",
"}+	c #DBC085",
"|+	c #DEC084",
"1+	c #EDCD8E",
"2+	c #F0CF8D",
"3+	c #F2D18F",
"4+	c #EED191",
"5+	c #E1C285",
"6+	c #DDC588",
"7+	c #F2CF8E",
"8+	c #F6D897",
"9+	c #F2D697",
"0+	c #E9C989",
"a+	c #DFC388",
"b+	c #E2C68B",
"c+	c #E3C68A",
"d+	c #F4D493",
"e+	c #E7CA8C",
"f+	c #EFD292",
"g+	c #E3C486",
"h+	c #DCBE83",
"i+	c #E5C78B",
"j+	c #F0CE8D",
"k+	c #F4D594",
"l+	c #F2D595",
"m+	c #E6CB8D",
"n+	c #E2C68A",
"o+	c #E5C487",
"p+	c #E7CB8D",
"q+	c #E8D094",
"r+	c #EDCC8B",
"s+	c #EED190",
"t+	c #E1C68A",
"u+	c #E2C78A",
"v+	c #E9C888",
"w+	c #F2D694",
"x+	c #F3D493",
"y+	c #EACD8D",
"z+	c #ECCE8D",
"A+	c #DABC81",
"B+	c #DFC48A",
"C+	c #DDBE84",
"D+	c #DFC68C",
"E+	c #DBBD82",
"F+	c #E0BF82",
"G+	c #DFCA8D",
"H+	c #DBC48A",
"I+	c #E1C386",
"J+	c #EFCD8D",
"K+	c #E9C88B",
"L+	c #E6C689",
"M+	c #F0D191",
"N+	c #F3D492",
"O+	c #EED193",
"P+	c #F0D494",
"Q+	c #E4C589",
"R+	c #D1BA81",
"S+	c #EFCF8F",
"T+	c #ECCF8F",
"U+	c #E1C385",
"V+	c #F2D998",
"W+	c #E5C789",
"X+	c #EDCE8D",
"Y+	c #E6C88B",
"Z+	c #D7BB82",
"`+	c #DCBF83",
" @	c #E3C588",
".@	c #F5D693",
"+@	c #ECCF8E",
"@@	c #EDCD8D",
"#@	c #DEC489",
"$@	c #F3D393",
"%@	c #F2D391",
"&@	c #F1DC9C",
"*@	c #E3C88B",
"=@	c #ECCF91",
"-@	c #E7C98A",
";@	c #EFD393",
">@	c #E8C787",
",@	c #EFD493",
"'@	c #E8C98B",
")@	c #E4C386",
"!@	c #E7C687",
"~@	c #EFD08E",
"{@	c #E9CD8D",
"]@	c #E6C98D",
"^@	c #E6CB8E",
"/@	c #EED497",
"(@	c #E8CC8F",
"_@	c #F5D592",
":@	c #DEC186",
"<@	c #F1D394",
"[@	c #E5C98D",
"}@	c #EBD191",
"|@	c #EACC8F",
"1@	c #EED293",
"2@	c #E9CE8F",
"3@	c #ECCD8E",
"4@	c #ECCD8F",
"5@	c #E5C586",
"6@	c #EACF90",
"7@	c #E6C788",
"8@	c #EACB8B",
"9@	c #EBCF90",
"0@	c #E1C284",
"a@	c #E4C485",
"b@	c #E4C384",
"c@	c #EBC888",
"d@	c #F4D391",
"e@	c #EFCD8E",
"f@	c #EBCD90",
"g@	c #EFCF91",
"h@	c #E5C889",
"i@	c #E9C788",
"j@	c #E2C589",
"k@	c #F0D292",
"l@	c #E5CA8C",
"m@	c #DABB81",
"n@	c #E3C688",
"o@	c #E0C285",
"p@	c #DFC285",
"q@	c #DCBD82",
"r@	c #E9CD8F",
"s@	c #F1CF8D",
"t@	c #EDD091",
"u@	c #ECCD90",
"v@	c #E6CA8D",
"w@	c #E7CC8E",
"x@	c #E6C78B",
"y@	c #ECCF90",
"z@	c #E8C88A",
"A@	c #EBCE8F",
"B@	c #EED595",
"C@	c #EECE8F",
"D@	c #EFCA88",
"  . + @ # $ % & * = - ; > , ' ) ! ~ { ] ^ / ( _ : < [ } | ^ 1 2 ",
"3 4 5 6 7 8 9 0 a b c d e , * f g { h { i j k l ~ m n } ) o p q ",
"r s t u v w x y z A B C D E C F { G h G { H ' I J K L M N O P F ",
"Q R S T U ' V W X Y Z `  .d J ..{ G h G { +.@.#.$.%.&.*.=.-.;.E ",
">.,.U U + ^ z '.M ).!.~.{.].^./.{.{ G h (.{ _.:.<.[.}.|.1.2.E 3.",
"Q 4._ 2.5.3.6.7.8./ A 9.k 3.6 = E 0.{ a.(.{ b.c.d.j e.f.S Q g.  ",
"h.e i.j.k.l.m.n.o.p.5.q.r._ s.p t.u.{ a.a.(.{ v.w.x.y.@ z.A.B.C.",
"D.E.F.G.w.]._ H.I.F.J.K.L.M.N.O.].P.{ a.G G { Q.R.S.T.E.U.V.W.c ",
"6 . X.( Y.Z.`. +T e .+++@+#+#.C.U { G h G { [.$+%+&+^ *+C =+-+;+",
"B.>+,+'+)+O !+~+T {+]+^+p.U /+(+_+{ G h G { :+<+*+[+}+|+1+*+2.2+",
"9 3+4+E 5+6+F.T.7+C 8+9+0+a+b+c+{.{ G h G { d+e+e.f+g+h+i+Q j+k+",
"l+j.@ *+)+m+n+K.o+p+o+q+r+_.J s+{ (.a.a.{ j m+t+u+p+[ v+:+c.0+w+",
"x+V x.y+H.z+* q.A+B+C+D+E+c.F+{ (.a.a.a.{ a+G+H+I+!+* J+K+L+H.M+",
"N+O+P+Q+R+h+i S+L T+O.j.; U+{ G G G a.{ N.+ V+> _.O .+W+ .[+^ X+",
"_.w < Y+Z+`+ @T+.@W.+@@@j { G G G G { D #@U $@%@J R.H.L.p.X.J.v ",
"&@S+{+*@Y+=@-@f ;@< >@,@{ (.a.a.G { p+'@)@!@@ ~@J j i {@]@^@f *+",
"/@r {+(@^ / ( _ : < [ { (.a.a.a.{ e.+ @ # $ % _@* @.:@; <@, ' x.",
"_.[@+ i i j k l ~ m { G G h a.{ 3 4 5 6 7 8 9 0 a b c d e , * f ",
"y.^@}@2 |@H ' I J K { G h G { 2.r s t u v w x y z A B C D E C F ",
"j.1@b._ R.+.@.#.$.%.{ G h G { e+m.R S T U ' V W X Y Z `  .d J 2@",
"M i 3@4@5@:+_.:.<.[.{ (.a.a.{ l.>.,.U U + ^ z '.M ).!.~.{.].^./.",
"'@0.6@+ 7@,+b.c.d.j e.{ (.a.a.{ _ 4._ 2.5.3.6.7.8./ A 9.k 3.6 = ",
"8@u.9@Y+0@a@[+v.w.x.y.@ { G h G { e i.j.k.l.m.n.o.p.5.q.r._ s.p ",
"].P.X.'@b@c@'@Q.R.S.T.E.U.{ G h G { F.G.w.]._ H.I.F.J.K.L.M.N.O.",
"H ^@m.4@S 6 [.$+%+&+^ *+C =+{ (.a.a.a.{ Y.Z.`. +T e .+++@+#+#.x.",
"_+`.w.E 5 Q :+<+*+[+}+|+1+*+2.{ (.a.a.(.{ O !+~+T {+]+^+p.U /+(+",
"{.@@d@e@f@g@d+e+e.f+g+h+i+Q { G G h h h G { F.T.7+C 8+9+0+a+b+c+",
"i h@B.i@j@j m+t+u+p+[ v+:+{ G G G G G G G G { K.o+p+o+q+r+_.J s+",
"k@l@(+t m@a+G+H+I+!+* J+K+{ { { { G { { { G { q.A+B+C+D+E+c.F+k ",
"L.e+@.n@N.+ V+> _.O .+W+ .{ ^ { { G { { R+{ i S+L T+O.j.; U+o@p@",
"q@@ r@D #@U $@%@J R.H.L.p.X.{ { { G { { { `+ @T+.@W.+@@@j q.s@_ ",
". t@p+c )@!@`.2.J Q+u@X.v@w@f T.{ { { { x@y@z@f | A@>@,@B@C@D@~ "};
