/* XPM */
static char * snake_xpm[] = {
"32 32 6 1",
" 	c None",
".	c #000000",
"+	c #339900",
"@	c #015A01",
"#	c #98FC66",
"$	c #CCFF99",
"                  .             ",
"                 .+.            ",
"                .@+@.           ",
"                .@+@.           ",
"                 .@+#.          ",
"                  .$#.          ",
"                  .$$#.         ",
"                  .$@@.         ",
"                 .@+@.          ",
"                 .@+@.          ",
"                 .@+@.          ",
"                .#$$.           ",
"               .#$$$.           ",
"              .@@@$.            ",
"             .@@@@.             ",
"            .#$$@.              ",
"           .#$$$.               ",
"          .@@+$.                ",
"          .@+@.                 ",
"          .@+@.                 ",
"          .#$$.                 ",
"           .#$$.                ",
"            .@+@.               ",
"             .@+@.              ",
"              .#$$$.            ",
"               .#$$#.           ",
"              .@@+++@.          ",
"             .@@@@@@@@.         ",
"             ....@...@.         ",
"             . ..@.. .          ",
"              ...@...           ",
"                ....            "};
