/* XPM */
static char * walls_xpm[] = {
"33 32 140 2",
"  	c #BCBCBC",
". 	c #EFEFEF",
"+ 	c #F6F6F6",
"@ 	c #C1C1C1",
"# 	c #767676",
"$ 	c #D5D5D5",
"% 	c #F3F3F3",
"& 	c #F7F7F7",
"* 	c #F9F9F9",
"= 	c #686868",
"- 	c #8F8F8F",
"; 	c #B9B9B9",
"> 	c #BFBFBF",
", 	c #BEBEBE",
"' 	c #DBDBDB",
") 	c #555555",
"! 	c #A4A4A4",
"~ 	c #BDBDBD",
"{ 	c #C7C7C7",
"] 	c #EEEEEE",
"^ 	c #888888",
"/ 	c #B0B0B0",
"( 	c #B5B5B5",
"_ 	c #B6B6B6",
": 	c #D8D8D8",
"< 	c #4F4F4F",
"[ 	c #9B9B9B",
"} 	c #B3B3B3",
"| 	c #B4B4B4",
"1 	c #EDEDED",
"2 	c #505050",
"3 	c #C0C0C0",
"4 	c #878787",
"5 	c #ABABAB",
"6 	c #B1B1B1",
"7 	c #D2D2D2",
"8 	c #999999",
"9 	c #AEAEAE",
"0 	c #BABABA",
"a 	c #E6E6E6",
"b 	c #656565",
"c 	c #7C7C7C",
"d 	c #898989",
"e 	c #8A8A8A",
"f 	c #8B8B8B",
"g 	c #A7A7A7",
"h 	c #969696",
"i 	c #818181",
"j 	c #939393",
"k 	c #B7B7B7",
"l 	c #3C3C3C",
"m 	c #3A3A3A",
"n 	c #3B3B3B",
"o 	c #3F3F3F",
"p 	c #4B4B4B",
"q 	c #424242",
"r 	c #1D1D1D",
"s 	c #414141",
"t 	c #3D3D3D",
"u 	c #545454",
"v 	c #111111",
"w 	c #E2E2E2",
"x 	c #E1E1E1",
"y 	c #7F7F7F",
"z 	c #909090",
"A 	c #D1D1D1",
"B 	c #CDCDCD",
"C 	c #AFAFAF",
"D 	c #DADADA",
"E 	c #CCCCCC",
"F 	c #CBCBCB",
"G 	c #D0D0D0",
"H 	c #E3E3E3",
"I 	c #7E7E7E",
"J 	c #BBBBBB",
"K 	c #CACACA",
"L 	c #444444",
"M 	c #C3C3C3",
"N 	c #DEDEDE",
"O 	c #707070",
"P 	c #DDDDDD",
"Q 	c #A6A6A6",
"R 	c #DFDFDF",
"S 	c #ADADAD",
"T 	c #9A9A9A",
"U 	c #A2A2A2",
"V 	c #7A7A7A",
"W 	c #6E6E6E",
"X 	c #929292",
"Y 	c #808080",
"Z 	c #575757",
"` 	c #535353",
" .	c #595959",
"..	c #6D6D6D",
"+.	c #3E3E3E",
"@.	c #484848",
"#.	c #626262",
"$.	c #6F6F6F",
"%.	c #101010",
"&.	c #949494",
"*.	c #C2C2C2",
"=.	c #5B5B5B",
"-.	c #4C4C4C",
";.	c #A3A3A3",
">.	c #D7D7D7",
",.	c #646464",
"'.	c #D6D6D6",
").	c #F1F1F1",
"!.	c #676767",
"~.	c #B2B2B2",
"{.	c #B8B8B8",
"].	c #D9D9D9",
"^.	c #515151",
"/.	c #9D9D9D",
"(.	c #858585",
"_.	c #A1A1A1",
":.	c #A5A5A5",
"<.	c #C4C4C4",
"[.	c #5E5E5E",
"}.	c #868686",
"|.	c #797979",
"1.	c #474747",
"2.	c #919191",
"3.	c #4E4E4E",
"4.	c #5A5A5A",
"5.	c #828282",
"6.	c #2B2B2B",
"7.	c #8C8C8C",
"8.	c #E0E0E0",
"9.	c #E4E4E4",
"0.	c #8E8E8E",
"a.	c #C5C5C5",
"b.	c #757575",
"c.	c #404040",
"d.	c #A8A8A8",
"e.	c #ACACAC",
"f.	c #8D8D8D",
"g.	c #6B6B6B",
"h.	c #848484",
"i.	c #AAAAAA",
"  . + + + + + + + + + + + + + @ # $ % + + + + + + + + + + + & * = ",
"- ; > , , , , , , , , , , > ' @ ) ! ~ , , , , , , , , , , , { ] = ",
"^ / ( ( ( ( ( ( ( ( ( ( ( _ : @ < [ } ( ( ( ( ( ( ( ( ( ( | > 1 = ",
"^ / ( ( ( ( ( ( ( ( ( ( ( _ : @ 2 [ } ( ( ( ( ( ( ( ( ( ( ( 3 1 = ",
"^ / ( ( ( ( ( ( ( ( ( ( ( _ : @ 2 [ } ( ( ( ( ( ( ( ( ( ( ( 3 1 = ",
"4 5 / / / / / / / / / / / 6 7   2 8 9 / / / / / / / / / / / 0 a b ",
"c d e e e e e e e e e e e f g h < i e e e e e e e e e e e e j k < ",
"l m m m m m n o o n m m m n p q r m m m m m m l s t n m m m o u v ",
"w x x x x w : y z A x x x x x x x x x x x x w B p C D x x x x x x ",
"E F F F F G H - I J F F F F F F F F F F F K D w L [ M F F F F F F ",
"k ( ( ( ( , N z O g ( ( ( ( ( ( ( ( ( ( ( | B x t d 9 ( ( ( ( ( ( ",
"k ( ( ( ( , N z O g ( ( ( ( ( ( ( ( ( ( ( | B x t e 9 ( ( ( ( ( ( ",
"k ( ( ( ( , N z O g ( ( ( ( ( ( ( ( ( ( ( | B x t e 9 ( ( ( ( ( ( ",
"_ | | | | ~ P - O Q | | | | | | | | | | | } E R t d S | | | | | | ",
"[ T T T T U , V W X T T T T T T T T T T T T C @ n Y h T T T T T T ",
"Z u ` ` `  ...+.@.u ` ` ` ` ` Z  .) ` ` ` ` #.$.%.2 u ` ` ` ` `  .",
"&.  *.*.*.@ @ *.*.*.*.*.*.*.> X =.g 3 *.*.*.@ @ *.*.*.*.*.*.@ > -.",
";.A >.>.>.>.>.>.>.>.>.>.>.>.a 3 ,.0 $ >.>.>.>.>.>.>.>.>.>.'.' ).!.",
"d ~.k k k k k k k k k k k {.].@ ^./.( k k k k k k k k k k _ @ 1 = ",
"^ / ( ( ( ( ( ( ( ( ( ( ( _ : @ 2 [ } ( ( ( ( ( ( ( ( ( ( ( 3 1 = ",
"^ / ( ( ( ( ( ( ( ( ( ( ( _ : @ 2 [ } ( ( ( ( ( ( ( ( ( ( ( 3 1 = ",
"^ / ( ( ( ( ( ( ( ( ( ( ( _ : @ 2 [ } ( ( ( ( ( ( ( ( ( ( ( 3 1 = ",
"(._.:.:.:.:.:.:.:.:.:.:.:.Q <./ ^.X ;.:.:.:.:.:.:.:.:.:.:.! 9 : [.",
"W W W W W W $.$.$.$.W W W $.}.|.1...W W W W W $.$.$.$.W W W # &.t ",
"X 2.2.2.2.2.e 3.4.}.2.2.2.2.2.2.X 2.2.2.2.2.2.5.6.$.7.2.2.2.2.2.X ",
"x 8.8.8.8.w 9.e 0.G 8.8.8.8.8.8.8.8.8.8.8.8.a P p S : 8.8.8.8.8.8.",
"> ~ ~ ~ ~ a.8.- b.C ~ ~ ~ ~ ~ ~ ~ ~ ~ ~ ~   7 x c.z _ ~ ~ ~ ~ ~ ~ ",
"k ( ( ( ( , N z O g ( ( ( ( ( ( ( ( ( ( ( | B x t e 9 ( ( ( ( ( ( ",
"k ( ( ( ( , N z O g ( ( ( ( ( ( ( ( ( ( ( | B x t e 9 ( ( ( ( ( ( ",
"k ( ( ( ( , N z O d.( ( ( ( ( ( ( ( ( ( ( ( B x t e C ( ( ( ( ( ( ",
"C S S S S ( $ d O _.S S S S S S S S S S S e.<.>.l 4 g S S S S S S ",
"4 }.}.}.}.f.g g.$.h.}.}.}.}.}.}.}.}.}.}.}.}.8 i.n c (.}.}.}.}.}.}."};
